<mxfile host="65bd71144e">
    <diagram id="C5RBs43oDa-KdzZeNtuy" name="Page-1">
        <mxGraphModel dx="1088" dy="886" grid="1" gridSize="10" guides="1" tooltips="1" connect="1" arrows="1" fold="1" page="1" pageScale="1" pageWidth="827" pageHeight="1169" math="0" shadow="0">
            <root>
                <mxCell id="WIyWlLk6GJQsqaUBKTNV-0"/>
                <mxCell id="WIyWlLk6GJQsqaUBKTNV-1" parent="WIyWlLk6GJQsqaUBKTNV-0"/>
                <mxCell id="UsCV4iTmfeBYZ-VUnTDY-0" value="&lt;u&gt;Utilisateurs&lt;br&gt;&lt;/u&gt;&lt;b&gt;&lt;u&gt;CODE_UTILISATEURS&lt;/u&gt;&lt;/b&gt;&lt;br&gt;nom&lt;br&gt;prénom&lt;br&gt;email&lt;br&gt;mot de passe" style="rounded=1;whiteSpace=wrap;html=1;align=center;" parent="WIyWlLk6GJQsqaUBKTNV-1" vertex="1">
                    <mxGeometry x="280" y="130" width="180" height="100" as="geometry"/>
                </mxCell>
                <mxCell id="UsCV4iTmfeBYZ-VUnTDY-1" value="" style="endArrow=none;dashed=1;html=1;rounded=0;" parent="WIyWlLk6GJQsqaUBKTNV-1" edge="1">
                    <mxGeometry width="50" height="50" relative="1" as="geometry">
                        <mxPoint x="369.5" y="360" as="sourcePoint"/>
                        <mxPoint x="369.5" y="230" as="targetPoint"/>
                        <Array as="points"/>
                    </mxGeometry>
                </mxCell>
                <mxCell id="UsCV4iTmfeBYZ-VUnTDY-3" value="&lt;u&gt;Animaux&lt;br&gt;&lt;/u&gt;&lt;b&gt;&lt;u&gt;CODE_ANIMAUX&lt;/u&gt;&lt;/b&gt;&lt;br&gt;nom&lt;br&gt;poid&lt;br&gt;age&lt;br&gt;race" style="rounded=0;whiteSpace=wrap;html=1;" parent="WIyWlLk6GJQsqaUBKTNV-1" vertex="1">
                    <mxGeometry x="310" y="360" width="190" height="100" as="geometry"/>
                </mxCell>
                <mxCell id="UsCV4iTmfeBYZ-VUnTDY-6" value="&lt;u&gt;Caractéristique animal&lt;br&gt;&lt;/u&gt;&lt;b&gt;&lt;u&gt;CODE_CARAC&lt;/u&gt;&lt;/b&gt;&lt;br&gt;Nom&lt;br&gt;Race&lt;br&gt;Poids&lt;br&gt;Date de naissance" style="rounded=0;whiteSpace=wrap;html=1;" parent="WIyWlLk6GJQsqaUBKTNV-1" vertex="1">
                    <mxGeometry x="100" y="655" width="150" height="115" as="geometry"/>
                </mxCell>
                <mxCell id="UsCV4iTmfeBYZ-VUnTDY-7" value="&lt;u&gt;Vaccinations&lt;br&gt;&lt;/u&gt;&lt;b&gt;&lt;u&gt;CODE_VACCIN&lt;/u&gt;&lt;/b&gt;&lt;u&gt;&lt;br&gt;&lt;/u&gt;Date&lt;br&gt;Type&lt;br&gt;Prochain rappel" style="rounded=0;whiteSpace=wrap;html=1;" parent="WIyWlLk6GJQsqaUBKTNV-1" vertex="1">
                    <mxGeometry x="270" y="655" width="120" height="115" as="geometry"/>
                </mxCell>
                <mxCell id="UsCV4iTmfeBYZ-VUnTDY-8" value="&lt;u&gt;Allergies&lt;br&gt;&lt;/u&gt;&lt;b&gt;&lt;u&gt;CODE_ALLERGIE&lt;/u&gt;&lt;/b&gt;&lt;u&gt;&lt;br&gt;&lt;/u&gt;Nom&lt;br&gt;Descriptif" style="rounded=0;whiteSpace=wrap;html=1;" parent="WIyWlLk6GJQsqaUBKTNV-1" vertex="1">
                    <mxGeometry x="400" y="655" width="120" height="115" as="geometry"/>
                </mxCell>
                <mxCell id="UsCV4iTmfeBYZ-VUnTDY-9" value="&lt;u&gt;Visites vétérinaire&lt;/u&gt;&lt;br&gt;&lt;b&gt;&lt;u&gt;CODE_VETO&lt;/u&gt;&lt;/b&gt;&lt;br&gt;Date&lt;br&gt;Description&lt;br&gt;Nom du vétérinaire&lt;br&gt;Diagnostique&lt;br&gt;Analyses_examens" style="rounded=0;whiteSpace=wrap;html=1;" parent="WIyWlLk6GJQsqaUBKTNV-1" vertex="1">
                    <mxGeometry x="534" y="655" width="120" height="115" as="geometry"/>
                </mxCell>
                <mxCell id="UsCV4iTmfeBYZ-VUnTDY-10" value="" style="endArrow=none;dashed=1;html=1;rounded=0;startArrow=none;" parent="WIyWlLk6GJQsqaUBKTNV-1" source="UsCV4iTmfeBYZ-VUnTDY-32" target="UsCV4iTmfeBYZ-VUnTDY-23" edge="1">
                    <mxGeometry width="50" height="50" relative="1" as="geometry">
                        <mxPoint x="170" y="655" as="sourcePoint"/>
                        <mxPoint x="220" y="605" as="targetPoint"/>
                    </mxGeometry>
                </mxCell>
                <mxCell id="UsCV4iTmfeBYZ-VUnTDY-11" value="" style="endArrow=none;dashed=1;html=1;rounded=0;entryX=0.42;entryY=1.033;entryDx=0;entryDy=0;entryPerimeter=0;startArrow=none;" parent="WIyWlLk6GJQsqaUBKTNV-1" source="UsCV4iTmfeBYZ-VUnTDY-24" edge="1">
                    <mxGeometry width="50" height="50" relative="1" as="geometry">
                        <mxPoint x="330" y="655" as="sourcePoint"/>
                        <mxPoint x="393" y="462.97" as="targetPoint"/>
                    </mxGeometry>
                </mxCell>
                <mxCell id="UsCV4iTmfeBYZ-VUnTDY-12" value="" style="endArrow=none;dashed=1;html=1;rounded=0;entryX=0.5;entryY=1;entryDx=0;entryDy=0;entryPerimeter=0;startArrow=none;" parent="WIyWlLk6GJQsqaUBKTNV-1" source="UsCV4iTmfeBYZ-VUnTDY-35" target="UsCV4iTmfeBYZ-VUnTDY-25" edge="1">
                    <mxGeometry width="50" height="50" relative="1" as="geometry">
                        <mxPoint x="450" y="655" as="sourcePoint"/>
                        <mxPoint x="500" y="605" as="targetPoint"/>
                    </mxGeometry>
                </mxCell>
                <mxCell id="UsCV4iTmfeBYZ-VUnTDY-13" value="" style="endArrow=none;dashed=1;html=1;rounded=0;startArrow=none;" parent="WIyWlLk6GJQsqaUBKTNV-1" source="UsCV4iTmfeBYZ-VUnTDY-26" edge="1">
                    <mxGeometry width="50" height="50" relative="1" as="geometry">
                        <mxPoint x="580" y="655" as="sourcePoint"/>
                        <mxPoint x="480" y="470" as="targetPoint"/>
                    </mxGeometry>
                </mxCell>
                <mxCell id="UsCV4iTmfeBYZ-VUnTDY-14" value="CONTENIR" style="rounded=0;whiteSpace=wrap;html=1;" parent="WIyWlLk6GJQsqaUBKTNV-1" vertex="1">
                    <mxGeometry x="220" y="500" width="100" height="50" as="geometry"/>
                </mxCell>
                <mxCell id="UsCV4iTmfeBYZ-VUnTDY-16" value="APPARTENIR" style="rounded=0;whiteSpace=wrap;html=1;" parent="WIyWlLk6GJQsqaUBKTNV-1" vertex="1">
                    <mxGeometry x="310" y="270" width="120" height="60" as="geometry"/>
                </mxCell>
                <mxCell id="UsCV4iTmfeBYZ-VUnTDY-18" value="0, N" style="text;html=1;align=center;verticalAlign=middle;resizable=0;points=[];autosize=1;strokeColor=none;fillColor=none;" parent="WIyWlLk6GJQsqaUBKTNV-1" vertex="1">
                    <mxGeometry x="370" y="230" width="40" height="20" as="geometry"/>
                </mxCell>
                <mxCell id="UsCV4iTmfeBYZ-VUnTDY-19" value="1, 1" style="text;html=1;align=center;verticalAlign=middle;resizable=0;points=[];autosize=1;strokeColor=none;fillColor=none;" parent="WIyWlLk6GJQsqaUBKTNV-1" vertex="1">
                    <mxGeometry x="380" y="340" width="40" height="20" as="geometry"/>
                </mxCell>
                <mxCell id="UsCV4iTmfeBYZ-VUnTDY-20" value="&lt;span style=&quot;color: rgba(0 , 0 , 0 , 0) ; font-family: monospace ; font-size: 0px&quot;&gt;%3CmxGraphModel%3E%3Croot%3E%3CmxCell%20id%3D%220%22%2F%3E%3CmxCell%20id%3D%221%22%20parent%3D%220%22%2F%3E%3CmxCell%20id%3D%222%22%20value%3D%221%2C%201%22%20style%3D%22text%3Bhtml%3D1%3Balign%3Dcenter%3BverticalAlign%3Dmiddle%3Bresizable%3D0%3Bpoints%3D%5B%5D%3Bautosize%3D1%3BstrokeColor%3Dnone%3BfillColor%3Dnone%3B%22%20vertex%3D%221%22%20parent%3D%221%22%3E%3CmxGeometry%20x%3D%22650%22%20y%3D%22220%22%20width%3D%2240%22%20height%3D%2220%22%20as%3D%22geometry%22%2F%3E%3C%2FmxCell%3E%3C%2Froot%3E%3C%2FmxGraphModel%3E&lt;/span&gt;" style="text;html=1;align=center;verticalAlign=middle;resizable=0;points=[];autosize=1;strokeColor=none;fillColor=none;" parent="WIyWlLk6GJQsqaUBKTNV-1" vertex="1">
                    <mxGeometry x="670" y="420" width="20" height="20" as="geometry"/>
                </mxCell>
                <mxCell id="UsCV4iTmfeBYZ-VUnTDY-23" value="0, N" style="text;html=1;align=center;verticalAlign=middle;resizable=0;points=[];autosize=1;strokeColor=none;fillColor=none;" parent="WIyWlLk6GJQsqaUBKTNV-1" vertex="1">
                    <mxGeometry x="320" y="460" width="40" height="20" as="geometry"/>
                </mxCell>
                <mxCell id="UsCV4iTmfeBYZ-VUnTDY-25" value="0, N" style="text;html=1;align=center;verticalAlign=middle;resizable=0;points=[];autosize=1;strokeColor=none;fillColor=none;" parent="WIyWlLk6GJQsqaUBKTNV-1" vertex="1">
                    <mxGeometry x="410" y="460" width="40" height="20" as="geometry"/>
                </mxCell>
                <mxCell id="UsCV4iTmfeBYZ-VUnTDY-24" value="0, N" style="text;html=1;align=center;verticalAlign=middle;resizable=0;points=[];autosize=1;strokeColor=none;fillColor=none;" parent="WIyWlLk6GJQsqaUBKTNV-1" vertex="1">
                    <mxGeometry x="360" y="460" width="40" height="20" as="geometry"/>
                </mxCell>
                <mxCell id="UsCV4iTmfeBYZ-VUnTDY-27" value="" style="endArrow=none;dashed=1;html=1;rounded=0;entryX=0.42;entryY=1.033;entryDx=0;entryDy=0;entryPerimeter=0;startArrow=none;" parent="WIyWlLk6GJQsqaUBKTNV-1" source="UsCV4iTmfeBYZ-VUnTDY-34" target="UsCV4iTmfeBYZ-VUnTDY-24" edge="1">
                    <mxGeometry width="50" height="50" relative="1" as="geometry">
                        <mxPoint x="330" y="655" as="sourcePoint"/>
                        <mxPoint x="393" y="462.97" as="targetPoint"/>
                        <Array as="points">
                            <mxPoint x="370" y="510"/>
                        </Array>
                    </mxGeometry>
                </mxCell>
                <mxCell id="UsCV4iTmfeBYZ-VUnTDY-26" value="0, N" style="text;html=1;align=center;verticalAlign=middle;resizable=0;points=[];autosize=1;strokeColor=none;fillColor=none;" parent="WIyWlLk6GJQsqaUBKTNV-1" vertex="1">
                    <mxGeometry x="450" y="460" width="40" height="20" as="geometry"/>
                </mxCell>
                <mxCell id="UsCV4iTmfeBYZ-VUnTDY-28" value="" style="endArrow=none;dashed=1;html=1;rounded=0;startArrow=none;" parent="WIyWlLk6GJQsqaUBKTNV-1" source="UsCV4iTmfeBYZ-VUnTDY-37" target="UsCV4iTmfeBYZ-VUnTDY-26" edge="1">
                    <mxGeometry width="50" height="50" relative="1" as="geometry">
                        <mxPoint x="580" y="655" as="sourcePoint"/>
                        <mxPoint x="480" y="470" as="targetPoint"/>
                    </mxGeometry>
                </mxCell>
                <mxCell id="UsCV4iTmfeBYZ-VUnTDY-29" value="CONTENIR" style="rounded=0;whiteSpace=wrap;html=1;" parent="WIyWlLk6GJQsqaUBKTNV-1" vertex="1">
                    <mxGeometry x="270" y="560" width="100" height="50" as="geometry"/>
                </mxCell>
                <mxCell id="UsCV4iTmfeBYZ-VUnTDY-30" value="CONTENIR" style="rounded=0;whiteSpace=wrap;html=1;" parent="WIyWlLk6GJQsqaUBKTNV-1" vertex="1">
                    <mxGeometry x="380" y="530" width="100" height="50" as="geometry"/>
                </mxCell>
                <mxCell id="UsCV4iTmfeBYZ-VUnTDY-31" value="CONTENIR" style="rounded=0;whiteSpace=wrap;html=1;" parent="WIyWlLk6GJQsqaUBKTNV-1" vertex="1">
                    <mxGeometry x="490" y="560" width="100" height="50" as="geometry"/>
                </mxCell>
                <mxCell id="UsCV4iTmfeBYZ-VUnTDY-32" value="1, 1" style="text;html=1;align=center;verticalAlign=middle;resizable=0;points=[];autosize=1;strokeColor=none;fillColor=none;" parent="WIyWlLk6GJQsqaUBKTNV-1" vertex="1">
                    <mxGeometry x="150" y="635" width="40" height="20" as="geometry"/>
                </mxCell>
                <mxCell id="UsCV4iTmfeBYZ-VUnTDY-33" value="" style="endArrow=none;dashed=1;html=1;rounded=0;" parent="WIyWlLk6GJQsqaUBKTNV-1" target="UsCV4iTmfeBYZ-VUnTDY-32" edge="1">
                    <mxGeometry width="50" height="50" relative="1" as="geometry">
                        <mxPoint x="170" y="655" as="sourcePoint"/>
                        <mxPoint x="330.81081081081084" y="480" as="targetPoint"/>
                    </mxGeometry>
                </mxCell>
                <mxCell id="UsCV4iTmfeBYZ-VUnTDY-35" value="1, 1" style="text;html=1;align=center;verticalAlign=middle;resizable=0;points=[];autosize=1;strokeColor=none;fillColor=none;" parent="WIyWlLk6GJQsqaUBKTNV-1" vertex="1">
                    <mxGeometry x="420" y="635" width="40" height="20" as="geometry"/>
                </mxCell>
                <mxCell id="UsCV4iTmfeBYZ-VUnTDY-36" value="" style="endArrow=none;dashed=1;html=1;rounded=0;entryX=0.5;entryY=1;entryDx=0;entryDy=0;entryPerimeter=0;" parent="WIyWlLk6GJQsqaUBKTNV-1" target="UsCV4iTmfeBYZ-VUnTDY-35" edge="1">
                    <mxGeometry width="50" height="50" relative="1" as="geometry">
                        <mxPoint x="450" y="655" as="sourcePoint"/>
                        <mxPoint x="430" y="480" as="targetPoint"/>
                    </mxGeometry>
                </mxCell>
                <mxCell id="UsCV4iTmfeBYZ-VUnTDY-37" value="1, 1" style="text;html=1;align=center;verticalAlign=middle;resizable=0;points=[];autosize=1;strokeColor=none;fillColor=none;" parent="WIyWlLk6GJQsqaUBKTNV-1" vertex="1">
                    <mxGeometry x="540" y="635" width="40" height="20" as="geometry"/>
                </mxCell>
                <mxCell id="UsCV4iTmfeBYZ-VUnTDY-38" value="" style="endArrow=none;dashed=1;html=1;rounded=0;" parent="WIyWlLk6GJQsqaUBKTNV-1" target="UsCV4iTmfeBYZ-VUnTDY-37" edge="1">
                    <mxGeometry width="50" height="50" relative="1" as="geometry">
                        <mxPoint x="580" y="655" as="sourcePoint"/>
                        <mxPoint x="475.9459459459458" y="480" as="targetPoint"/>
                    </mxGeometry>
                </mxCell>
                <mxCell id="UsCV4iTmfeBYZ-VUnTDY-34" value="1, 1" style="text;html=1;align=center;verticalAlign=middle;resizable=0;points=[];autosize=1;strokeColor=none;fillColor=none;" parent="WIyWlLk6GJQsqaUBKTNV-1" vertex="1">
                    <mxGeometry x="300" y="635" width="40" height="20" as="geometry"/>
                </mxCell>
                <mxCell id="UsCV4iTmfeBYZ-VUnTDY-39" value="" style="endArrow=none;dashed=1;html=1;rounded=0;entryX=0.42;entryY=1.033;entryDx=0;entryDy=0;entryPerimeter=0;" parent="WIyWlLk6GJQsqaUBKTNV-1" target="UsCV4iTmfeBYZ-VUnTDY-34" edge="1">
                    <mxGeometry width="50" height="50" relative="1" as="geometry">
                        <mxPoint x="330" y="655" as="sourcePoint"/>
                        <mxPoint x="376.8000000000002" y="480.6600000000001" as="targetPoint"/>
                    </mxGeometry>
                </mxCell>
            </root>
        </mxGraphModel>
    </diagram>
</mxfile>